<?xml version="1.0" encoding="iso-8859-1"?>
<!-- Uploaded to: SVG Repo, www.svgrepo.com, Generator: SVG Repo Mixer Tools -->
<!DOCTYPE svg PUBLIC "-//W3C//DTD SVG 1.1//EN" "http://www.w3.org/Graphics/SVG/1.1/DTD/svg11.dtd">
<svg fill="#000000" version="1.1" id="Capa_1" xmlns="http://www.w3.org/2000/svg" xmlns:xlink="http://www.w3.org/1999/xlink" 
	 width="800px" height="800px" viewBox="0 0 124.303 124.303"
	 xml:space="preserve">
<g>
	<g>
		<path d="M13.88,47.931v33.014h25.35v-37.37H18.292L13.88,47.931z M36.797,78.512H16.312V68.486
			c0.105-0.002,0.209-0.037,0.296-0.107l3.295-2.707l2.782,2.684c0.102,0.098,0.237,0.143,0.378,0.129
			c0.139-0.015,0.264-0.09,0.342-0.205l3.113-4.627l2.879,0.845c0.18,0.052,0.372-0.007,0.493-0.147l6.907-8.098V78.512z
			 M20.164,46.007h16.634v9.041c-0.132,0.002-0.262,0.054-0.354,0.162l-7.074,8.293l-2.919-0.854
			c-0.197-0.059-0.409,0.02-0.523,0.19l-2.992,4.444l-2.678-2.586c-0.173-0.166-0.443-0.178-0.63-0.023l-3.315,2.725V49.456h3.852
			L20.164,46.007L20.164,46.007z"/>
		<path d="M35.433,53.397c0-0.158-0.128-0.283-0.283-0.283h-3.842c-0.155,0-0.283,0.125-0.283,0.283v2.765v4.068l4.408-5.167V53.397
			z"/>
		<path d="M31.308,72.846h3.842c0.155,0,0.283-0.127,0.283-0.283v-5.229v-0.869V59.39l-4.408,5.167v5.242v2.766
			C31.025,72.719,31.153,72.846,31.308,72.846z"/>
		<path d="M24.164,68.797v1.786v1.979c0,0.155,0.125,0.282,0.283,0.282h3.839c0.158,0,0.283-0.127,0.283-0.282v-1.379v-5.56
			l-1.9-0.556L24.164,68.797z"/>
		<path d="M26.537,61.648l2.032,0.595v-3.028v-1.38c0-0.155-0.125-0.283-0.283-0.283h-3.839c-0.158,0-0.283,0.128-0.283,0.283v1.98
			v4.181l1.325-1.969C25.717,61.685,26.141,61.532,26.537,61.648z"/>
		<path d="M20.536,63.811l1.548,1.493v-1.836V61.14c0-0.155-0.125-0.283-0.283-0.283h-3.839c-0.158,0-0.283,0.128-0.283,0.283V64.1
			v0.979l1.604-1.317C19.652,63.456,20.192,63.477,20.536,63.811z"/>
		<path d="M17.678,68.939v0.664v2.959c0,0.156,0.125,0.283,0.283,0.283H21.8c0.158,0,0.283-0.127,0.283-0.283v-3.219l-2.253-2.173
			L17.678,68.939z"/>
		<path d="M89.485,43.576l-4.412,4.355v33.014h25.35v-37.37H89.485z M107.991,78.512H87.505V49.456h3.854v-3.448h16.633V78.512
			L107.991,78.512z"/>
		<path d="M74.637,0H53.701l-4.413,4.356v33.013h25.35L74.637,0L74.637,0z M57.064,13.995l0.634-2.068l1.647,1.893l-2.21,0.215
			l0.018-0.039L57.064,13.995L57.064,13.995z M56.223,13.995h-3.195l1.606-2.119l2.324-0.285L56.223,13.995z M57.687,18.57
			l-2.417-0.941l1.197-2.27L57.687,18.57z M55.854,14.799l-1.205,2.278l-1.645-2.278H55.854z M56.464,21.787l-4.583-2.681
			l2.635-0.791L56.464,21.787z M54.047,17.616l-2.326,0.699v-0.772l0.652-2.243L54.047,17.616z M51.72,19.945l4.855,2.839
			l-3.537,1.436l-1.318-3.976V19.945z M57.283,23.366l0.618,3.883l-4.196-2.432L57.283,23.366z M57.401,21.819l-1.789-3.195
			l2.442,0.952L57.401,21.819z M57.131,14.842l2.33-0.227l-1.031,3.646L57.131,14.842z M66.06,18.386l-2.894,2.448l0.833-3.563
			L66.06,18.386z M64.162,16.445l0.292-2.417l1.479,3.374L64.162,16.445z M63.422,15.861l-2.413-1.624l2.741-1.095L63.422,15.861z
			 M62.951,16.52l-3.737,1.924l1.051-3.711L62.951,16.52z M58.817,19.843l2.805,1.702l-3.518,0.753L58.817,19.843z M58.631,23.008
			l3.468-0.744l-0.26,2.596L58.631,23.008z M61.416,25.544l-2.685,1.793l-0.59-3.683L61.416,25.544z M59.397,19.254l3.768-1.939
			l-0.866,3.702L59.397,19.254z M62.921,22.105l3.589,0.518l-3.854,2.167L62.921,22.105z M63.731,21.409l2.797-2.367l0.682,2.87
			L63.731,21.409z M66.885,17.575l-1.933-4.411l4.572,1.433L66.885,17.575z M67.469,18.128l2.679-3.022l2.059,4.021v0.61
			L67.469,18.128z M72.114,20.554l-4.088,1.324l-0.699-2.951L72.114,20.554z M55.573,5.88V2.431h16.633v14.93l-1.639-3.199
			l-6.287-2.017l-0.155-0.359l-0.05,0.403l-0.107,0.042l-0.087-0.027l0.022,0.053l-3.626,1.41l-2.558-2.945l-0.279,0.003v-0.001
			l-3.242,0.396l-2.313,3.051l-0.048,0.031l0.014,0.021l-0.13,0.448V5.88H55.573z M51.72,34.937V22.871l0.711,2.19l5.876,3.351
			l0.276-0.01l0.055-0.036l0.052,0.028l-0.011-0.057l3.662-2.443l5.521-3.113l4.343-1.408v13.564H51.72z"/>
		<path d="M49.288,91.289v33.014h25.35V86.934H53.701L49.288,91.289z M55.573,89.365h16.633v32.506H51.72V92.812h3.853V89.365z"/>
		<path d="M63.811,54.912V41.932h-3.32v12.979c-2.987,0.606-5.4,2.816-6.298,5.688H42.44v3.32h11.418
			c0.368,3.649,3.096,6.61,6.633,7.328v12.339h3.32V71.249c3.535-0.718,6.266-3.679,6.633-7.328h11.906v-3.32H70.108
			C69.212,57.728,66.799,55.518,63.811,54.912z M62.151,68.095c-2.765,0-5.016-2.25-5.016-5.015c0-2.765,2.251-5.015,5.016-5.015
			s5.014,2.25,5.014,5.015C67.165,65.845,64.916,68.095,62.151,68.095z"/>
		<path d="M88.981,63.925c0,4.337,3.527,7.866,7.866,7.866c2.082,0,4.046-0.809,5.527-2.271c1.196-1.182,1.97-2.68,2.235-4.332l0,0
			l0,0c0.002-0.01,0-0.019,0-0.024c0-0.011,0-0.021-0.002-0.031c-0.002-0.009-0.006-0.017-0.012-0.022
			c-0.004-0.01-0.006-0.019-0.013-0.026c-0.005-0.007-0.013-0.013-0.021-0.019c-0.007-0.006-0.011-0.014-0.02-0.019
			c-0.01-0.004-0.018-0.006-0.025-0.011c-0.009-0.004-0.018-0.008-0.025-0.01h-0.002l-2.577-0.396c-0.009-0.002-0.019,0-0.026,0.001
			s-0.02-0.001-0.027,0.001c-0.01,0.002-0.02,0.01-0.027,0.012c-0.01,0.006-0.016,0.006-0.021,0.012
			c-0.009,0.006-0.016,0.017-0.023,0.023c-0.002,0.006-0.008,0.01-0.014,0.016c-0.006,0.01-0.008,0.021-0.013,0.031
			c-0.002,0.006-0.005,0.014-0.007,0.02c-0.173,1.044-0.666,1.988-1.423,2.73c-0.937,0.92-2.175,1.428-3.484,1.428
			c-2.745,0-4.977-2.232-4.977-4.977c0-2.745,2.231-4.976,4.977-4.976c0.575,0,1.142,0.098,1.681,0.29c0,0,0,0,0,0.001
			c0.018,0.006,0.031,0.009,0.047,0.009c0,0,0.005-0.001,0.008-0.001c0.002,0,0.006-0.001,0.013-0.002
			c0.011-0.002,0.022-0.005,0.034-0.009c0.005-0.003,0.012-0.004,0.016-0.008c0.012-0.005,0.021-0.012,0.027-0.021
			c0.005-0.004,0.007-0.006,0.012-0.011c0.01-0.012,0.02-0.025,0.025-0.042c0-0.001,0-0.001,0-0.002l0.871-2.458
			c0.005-0.01,0.005-0.019,0.005-0.029c0-0.009,0.004-0.018,0.004-0.026c-0.002-0.011-0.004-0.021-0.009-0.03
			c-0.002-0.007-0.002-0.015-0.006-0.022c-0.006-0.011-0.014-0.02-0.022-0.029c-0.002-0.004-0.006-0.01-0.011-0.014
			c-0.008-0.008-0.02-0.013-0.03-0.019c-0.006-0.003-0.011-0.009-0.017-0.011c-0.85-0.304-1.74-0.457-2.646-0.457
			C92.509,56.059,88.981,59.587,88.981,63.925z M102.006,64.929l2.3,0.354c-0.27,1.49-0.968,2.845-2.031,3.934l-1.644-1.645
			C101.34,66.837,101.813,65.928,102.006,64.929z"/>
		<path d="M100.249,57.601c0.005,0.009,0.011,0.016,0.016,0.022c0.006,0.007,0.012,0.016,0.018,0.022
			c0.007,0.006,0.018,0.011,0.025,0.016c0.01,0.004,0.014,0.01,0.02,0.013c1.973,0.707,3.298,2.589,3.298,4.683
			c0,0.271-0.022,0.547-0.069,0.822v0.001c-0.002,0.01,0,0.018,0.002,0.027c0,0.01-0.002,0.02,0,0.027
			c0.002,0.01,0.008,0.017,0.014,0.024c0.002,0.009,0.006,0.017,0.012,0.024c0.004,0.007,0.013,0.012,0.021,0.019
			c0.004,0.007,0.01,0.015,0.017,0.019c0.009,0.006,0.021,0.008,0.028,0.012c0.008,0.003,0.016,0.008,0.022,0.009l0,0h0.003
			l2.574,0.397h0.003c0.006,0,0.015,0.002,0.021,0.002c0.018,0,0.032-0.004,0.049-0.01c0.008-0.002,0.013-0.006,0.019-0.01
			c0.007-0.005,0.019-0.01,0.024-0.015c0.006-0.007,0.008-0.013,0.015-0.019s0.013-0.013,0.019-0.021
			c0.004-0.007,0.004-0.013,0.006-0.021c0.004-0.01,0.009-0.018,0.012-0.027c0,0,0,0,0-0.002c0.066-0.418,0.102-0.843,0.102-1.262
			c0-3.314-2.098-6.293-5.219-7.407h-0.003c-0.034-0.012-0.067-0.01-0.099,0.003c-0.004,0.002-0.006,0.002-0.01,0.003
			c-0.009,0.004-0.018,0.012-0.023,0.018c-0.006,0.006-0.014,0.008-0.02,0.015c-0.007,0.008-0.012,0.018-0.016,0.025
			c-0.005,0.008-0.012,0.015-0.014,0.022l-0.871,2.458c-0.002,0.008-0.002,0.017-0.004,0.026c0,0.01-0.004,0.019-0.004,0.029
			c0.002,0.008,0.004,0.016,0.006,0.023C100.243,57.583,100.243,57.592,100.249,57.601z"/>
		<path d="M61.496,114.938c4.95,0,8.979-4.027,8.979-8.978c0-0.312-0.019-0.638-0.053-0.968l-0.053-0.483h-6.885v-7.315
			l-0.447-0.078c-0.517-0.088-1.036-0.133-1.542-0.133c-4.95,0-8.978,4.026-8.978,8.979
			C52.518,110.91,56.546,114.938,61.496,114.938z"/>
		<path d="M65.633,96.298v6.19h5.774C70.851,99.494,68.581,97.062,65.633,96.298z"/>
	</g>
</g>
</svg>